<svg width="168" height="88" viewBox="0 0 168 88" fill="none" xmlns="http://www.w3.org/2000/svg">
<path d="M117.984 40.1553V61.939H82.1991V54.6778H110.868V47.4013H82.4363V25.6175H118.206V32.8941H89.5219V40.1553H117.984ZM75.0836 32.8941H67.9974V25.6175H75.0836V32.8941ZM7.11553 61.939V40.1553H46.2212V47.4013H14.2011V54.6778H46.4435V61.939H7.11553ZM168 25.6175V18.3716H125.115H118.206H82.1991H75.3208H67.7602V0.218735L60.6447 7.46471V61.939H53.5591V11.1103L46.4435 18.3716H0V25.6175H46.4435V32.8941H0V69.185H46.4435H60.8819L67.9974 76.431V40.1553H75.0836V80.0619L82.1991 87.3384V69.185H118.206H125.115H168V32.8941H132.408V40.1553H160.87V61.939H125.115V54.6778H153.755V47.4013H125.322V25.6175H168Z" fill="white"/>
</svg>
